<svg xmlns="http://www.w3.org/2000/svg" width="150" height="200" viewBox="0 0 150 200">
  <defs>
    <style>
      .cls-1 {
        fill: #a8a8a8;
        fill-rule: evenodd;
      }
    </style>
  </defs>
  <path id="logo_all" class="cls-1" d="M186.354,417.3c-2.38.755-3.54,2.35-4.227,4.791-1,3.573-1.166,7.894-1.322,11.573-0.183,4.318-.062,9.46,3.36,12.506,1.488,1.325,4.071,1.107,5.635.058,2.387-1.6,3.661-4.3,4.765-6.906a40.04,40.04,0,0,0,3.378-12.609c0.185-2.465.047-7.939-2.663-9.284a2.65,2.65,0,0,0-3.9,1.57c-0.1.4,1.223,0.192,1.322-.206,0.676-2.71,2.817,1.028,2.964,1.337a12.813,12.813,0,0,1,.868,3.652,24.206,24.206,0,0,1-1.04,9.559c-1.051,3.91-2.738,8.527-5.353,11.613-3.454,4.073-6.534-.987-7.388-3.811-0.967-3.2-.729-6.761-0.446-10.033,0.3-3.51-.037-11.917,4.192-13.26,0.772-.245.64-0.8-0.144-0.55h0Zm-3.986-11.859a156.238,156.238,0,0,0-44.823,32.009c-0.574.6,0.726,0.7,1.094,0.323a154.333,154.333,0,0,1,44.291-31.636c0.832-.4.08-1-0.562-0.7h0ZM79.005,417.268c4.851,0.285,10.142-6.409,10.455-11,0.338-4.952-6.638-4.8-9.4-3.111-4.759,2.9-9.525,10.186-6.332,15.842a21.775,21.775,0,0,0,3.282,4.385c1.461,1.522,2.9,2.327,3.681,4.438,1.612,4.351-.817,9.2-3.109,12.747a38.381,38.381,0,0,1-9.421,9.649c-0.788.594-3.522,3.385-4.381,2.626-0.723-.638-0.219-1.949.071-2.658,1.837-4.491,6.115-8.3,9.453-11.618,4.2-4.183,8.721-8.012,13.207-11.862,7.775-6.674,16.158-13.013,25.353-17.4l-0.554-.671a20.428,20.428,0,0,0-6.958,6.456,43.773,43.773,0,0,0-5.8,9.912c-0.47,1.27-1.909,5.16.31,5.78,1.553,0.435,3.3-.973,4.466-1.8,0.88-.622,1.731-1.281,2.638-1.861,0.224-.143-1.756,3.137-1.54,2.861-0.618.791-1.191,1.594-1.757,2.427-2.279,3.36-5.428,6.716-6.067,10.913-0.324,2.134,1.434,2.91,3.127,2.48,2.656-.673,5.3-3.681,7.555-5.121,0.767-.49-0.371-0.81-0.851-0.5a56.388,56.388,0,0,0-5.02,3.647,10.8,10.8,0,0,1-1.514,1.007q-2.444-.611-1.842-2.415a11.013,11.013,0,0,1,1.526-3.576c1.447-2.562,3.355-4.894,5-7.321,1.179-1.74,2.664-3.119,3.18-5.235,0.061-.253-0.249-0.346-0.424-0.366-1.129-.13-2.161.637-3.052,1.246-1.466,1-5.264,4.658-5.238.854,0.022-3.175,2.447-6.347,4.021-8.92,2.327-3.8,4.791-7.684,8.793-9.8,0.82-.432.079-0.972-0.554-0.671-13.563,6.477-25.647,16.913-36.63,27.248-2.219,2.088-16.006,14.106-11.925,17.708,1.211,1.069,3.008-.241,3.957-0.989a77.6,77.6,0,0,0,8.208-7c4.265-4.45,8.443-10.742,7.337-17.265-0.569-3.358-3.841-5.127-5.8-7.594-3.161-3.976-2.729-8.01-.313-12.238,2-3.5,9.032-9.019,11.757-3.267,1.727,3.643-4.742,11.376-8.4,11.16-0.57-.034-1.4.819-0.492,0.873h0Zm68.944-3.844c0.15,5.442.111,10.886,0.3,16.329,0.06,1.711-.5,11.378,1.876,11.789,0.59,0.1,1.378-.738.487-0.893-1.091-.188-1.074-12.521-1.107-13.661-0.131-4.566-.094-9.135-0.22-13.7-0.018-.656-1.355-0.4-1.34.136h0Zm15.584-20.463c1.8,0.482-.439,14.949-0.615,16.774-0.308,3.194-.465,6.406-0.67,9.607-0.654,10.212-1.458,20.6-.38,30.822,0.05,0.472,1.387.166,1.331-.366-1.149-10.9-.183-21.949.525-32.842,0.289-4.442.705-8.858,1.109-13.291,0.271-2.984.558-6.007,0.586-9,0.013-1.375.195-2.118-1.075-2.459-0.436-.117-1.571.555-0.811,0.759h0ZM127.3,437.892c-3.4,1.7-5.922,4.483-8.517,7.236l1.27-.132c1.5-9.153,4.412-17.967,5.693-27.173a234.675,234.675,0,0,0,2.147-27.893c0-.3-1.323-0.087-1.331.366a243.411,243.411,0,0,1-2.306,28.961c-1.223,8.79-4.095,17.208-5.524,25.952-0.08.491,1.114,0.034,1.27-.131,2.462-2.613,4.857-5.3,8.089-6.916,0.8-.4-0.43-0.451-0.791-0.27h0ZM156.269,263.35a138.625,138.625,0,0,1,9.227,10.979,12.082,12.082,0,0,1,1.878,3.613c0.4,1.409.481-1.917-.022-0.24a3.713,3.713,0,0,1-.73,1.236c-2.065,2.539-6.129,3.657-9.006,4.755-6.491,2.479-13.076,4.7-19.578,7.148a10.661,10.661,0,0,0,0,2.358,45.773,45.773,0,0,1,3.667,7.815c0.135,0.415.237,0.839,0.334,1.264,0.294,1.272.2,0.013,0.116,0.593a5.215,5.215,0,0,1-1.15,2.419c-1.472,1.857-4.029,2.724-6.162,3.417a73.613,73.613,0,0,1-12.333,2.483,16.4,16.4,0,0,0,0,2.359c8.961,11.079,15.343,24.957,10.638,39.37-5.522,16.913-21.939,28.126-36.529,36.014-0.329.178,0.3,2.2,0,2.359,16.087-8.7,34.113-21.5,37.847-41.124,2.729-14.346-3.151-28.093-11.956-38.978v2.359c4.887-.7,9.913-1.416,14.533-3.277,2.3-.927,4.547-2.426,5.112-5.042,1.1-5.1-1.786-10.169-4.117-14.389V293.2c7.062-2.661,14.234-5.032,21.259-7.8,2.618-1.031,7.175-2.41,8.12-5.558a8.833,8.833,0,0,0-.881-6.234c-2.547-4.7-6.794-8.663-10.267-12.617,0.373,0.424-.388,1.916,0,2.358h0Z" transform="translate(-55 -257.5)"/>
</svg>
